<svg xmlns="http://www.w3.org/2000/svg" width="48" height="48" viewBox="0 0 48 48">
    <defs>
        <linearGradient id="a3vh9i9tqa" x1="21.772%" x2="83.939%" y1="71.407%" y2="23.931%">
            <stop offset="0%" stop-color="#EE4823"/>
            <stop offset="17%" stop-color="#EF4F22"/>
            <stop offset="42%" stop-color="#F16121"/>
            <stop offset="70%" stop-color="#F57F1E"/>
            <stop offset="100%" stop-color="#FAA61A"/>
        </linearGradient>
    </defs>
    <g fill="none" fill-rule="evenodd">
        <g fill-rule="nonzero">
            <g transform="translate(-567 -924) translate(567 924)">
                <rect width="48" height="48" fill="#2A2C2C" rx="8"/>
                <g>
                    <path fill="url(#a3vh9i9tqa)" d="M29.359 12.243c-2.21 0-4.203 1.328-5.049 3.363-.845 2.035-.376 4.377 1.187 5.934 1.564 1.557 3.915 2.021 5.956 1.177 2.042-.845 3.371-2.832 3.37-5.035 0-1.443-.577-2.828-1.601-3.848-1.025-1.02-2.415-1.592-3.863-1.59z" transform="translate(5.25 8.344)"/>
                    <path fill="#FFF" d="M36.18 10.372c-.035 0-.068-.014-.093-.04-.024-.025-.037-.06-.035-.094v-.802l-.332.546c-.02.032-.051.055-.088.063-.036.007-.074 0-.105-.022-.02-.009-.035-.023-.047-.04l-.332-.547v.779c0 .058-.047.104-.105.104-.058 0-.105-.046-.105-.104V9.047c0-.036.015-.07.042-.093.027-.024.063-.034.098-.03.082 0 .105 0 .146.094l.42.697.425-.697c.025-.058.083-.096.146-.093.035-.003.07.008.096.03.027.024.043.057.044.092v1.191c.003.036-.008.07-.03.098-.024.027-.057.044-.092.047l-.053-.011zm-1.942 0c-.034-.002-.066-.017-.089-.042-.023-.025-.035-.058-.033-.092V9.181h-.344c-.064-.003-.117-.053-.122-.117 0-.067.054-.122.122-.122h.898c.068 0 .122.055.122.122 0 .064-.052.117-.116.117h-.338v1.057c.002.062-.04.118-.1.134zM29.36 24.987c-4.057-.017-7.332-3.305-7.319-7.347.014-4.042 3.313-7.308 7.369-7.296 4.056.011 7.335 3.296 7.325 7.338-.004 1.944-.784 3.806-2.168 5.176-1.384 1.37-3.257 2.136-5.208 2.129zm0-12.784c-2.211 0-4.204 1.327-5.049 3.362-.845 2.036-.377 4.378 1.187 5.935 1.564 1.556 3.915 2.02 5.956 1.176 2.041-.844 3.371-2.832 3.369-5.034-.023-2.99-2.463-5.402-5.464-5.398v-.041zM19.639 23.533V1.482c.054-.372-.102-.743-.405-.965-.303-.223-.705-.261-1.045-.1-.34.163-.563.498-.58.873-.005.064-.005.128 0 .192v22.08c-.024.542.382 1.007.923 1.058.542.05 1.028-.33 1.107-.866.007-.073.007-.147 0-.22zM14.799 17.682c.006-3.536-2.52-6.573-6.008-7.222S1.847 11.735.572 15.035c-1.274 3.3-.003 7.036 3.021 8.885 3.025 1.848 6.943 1.282 9.317-1.346v.976c.014 1.45-.553 2.845-1.573 3.878-1.021 1.033-2.413 1.617-3.868 1.625-.354-.028-.694.145-.88.447-.185.301-.185.682 0 .983.186.302.526.475.88.447 4.059-.003 7.347-3.283 7.347-7.327l-.017-5.921zm-7.347 5.444c-2.21.003-4.204-1.323-5.052-3.357-.847-2.034-.381-4.377 1.18-5.935 1.563-1.559 3.913-2.025 5.955-1.183 2.043.842 3.375 2.828 3.375 5.03.001 1.444-.573 2.829-1.597 3.85S8.9 23.126 7.452 23.126z" transform="translate(5.25 8.344)"/>
                </g>
            </g>
        </g>
    </g>
</svg>
