<svg xmlns="http://www.w3.org/2000/svg" width="566" height="517" viewBox="0 0 566 517">
    <g fill="none" fill-rule="evenodd">
        <path fill="#000" d="M0 516.724L0 0.724 566 258.724z" opacity=".15"/>
        <g>
            <path fill="#041E42" d="M0 193.216L0 0.232 212 96.724z" transform="translate(0 162)"/>
            <path fill="#00AED6" fill-rule="nonzero" d="M150 75.659L198.791 97.755 195.084 99.434 150 79.016 150 93.909 178.642 106.882 155.247 117.477 155.241 114.158 171.273 106.898 150 97.262 150 102.996 158.563 106.875 150 110.754 150 125.687 191.404 106.935 155.241 90.557 155.241 87.163 195.152 105.237 211.574 97.8 150 69.913z" transform="translate(0 162)"/>
            <path fill="#FFF" d="M195.551 69.394c0 6.293-5.118 11.394-11.431 11.394-3.033.005-5.943-1.194-8.088-3.332-2.145-2.138-3.348-5.038-3.343-8.062 0-6.292 5.118-11.394 11.431-11.394 6.313 0 11.431 5.102 11.431 11.394zm-11.431-7.469c4.379 0 7.807 3.375 7.807 7.468 0 4.092-3.419 7.499-7.807 7.499-4.344 0-7.799-3.408-7.799-7.499 0-4.092 3.455-7.468 7.799-7.468zm11.026 19.953l-3.639-1.649v11.023h-18.413v3.999h22.052V81.878zm-22.052 31.69h22.052V99.464l-3.607-1.634v11.737h-5.615v-5.113l-3.607-1.635v6.748h-5.614v-9.295l-3.609-1.632v14.928zm0 5.691v-4.03l22.787 10.318-22.787 10.321v-4.031l13.886-6.29-13.886-6.288z" transform="translate(0 162)"/>
        </g>
    </g>
</svg>
