<svg width="22" height="21" viewBox="0 0 22 21" fill="none" xmlns="http://www.w3.org/2000/svg">
    <path d="M15.543 0C13.8941 0 12.2165 0.611111 10.9885 1.87369C9.73166 0.611111 8.08858 0 6.43973 0C4.79089 0 3.1478 0.611111 1.88523 1.87369C-0.634166 4.39308 -0.634166 8.49214 1.88523 11.0115L10.9885 20.1494L20.1321 11.0115C21.3889 9.75472 22.0058 8.10587 22.0058 6.45702C22.0058 4.80818 21.3947 3.16509 20.1321 1.90252C18.8695 0.611111 17.2264 0 15.543 0ZM18.7427 9.65094L10.9942 17.3994L3.24581 9.65094C2.40409 8.80922 1.91982 7.67924 1.91982 6.45702C1.91982 5.2348 2.3695 4.09906 3.24581 3.2631C4.08753 2.42138 5.21751 1.93711 6.43973 1.93711C7.66195 1.93711 8.7977 2.38679 9.63365 3.2631L10.9885 4.65252L12.3433 3.29769C13.185 2.45597 14.315 1.9717 15.5372 1.9717C16.7594 1.9717 17.8952 2.42138 18.7311 3.29769C19.5729 4.13941 20.0571 5.26939 20.0571 6.49161C20.0629 7.71384 19.6132 8.7804 18.7427 9.65094Z" fill="#00A2C7"/>
</svg>
