<svg xmlns="http://www.w3.org/2000/svg" width="18" height="18" viewBox="0 0 18 18"><path fill="#fff" d="M4.382 6.9c0-2.548 2.072-4.62 4.62-4.62 2.547 0 4.62 2.072 4.62 4.62s-2.073 4.62-4.62 4.62c-2.548 0-4.62-2.072-4.62-4.62zm8.82 5.46h-1.067c1.89-1.087 3.167-3.123 3.167-5.46 0-3.48-2.82-6.3-6.3-6.3s-6.3 2.82-6.3 6.3c0 2.337 1.276 4.373 3.166 5.46H4.802c-2.316 0-4.2 1.884-4.2 4.2v.84h1.68v-.84c0-1.39 1.13-2.52 2.52-2.52h8.4c1.389 0 2.52 1.13 2.52 2.52v.84h1.68v-.84c0-2.316-1.885-4.2-4.2-4.2z" transform="translate(-271 -13) translate(271 13)"/></svg>
