<svg xmlns="http://www.w3.org/2000/svg" width="17" height="17" viewBox="0 0 17 17"><path fill="#000" d="M491.825 303.637c-.755 1.062-1.91 1.815-3.246 2.045l-.136.02c-.237.035-.477.058-.723.058-2.783 0-5.04-2.256-5.04-5.04 0-2.783 2.257-5.04 5.04-5.04 2.784 0 5.04 2.257 5.04 5.04 0 .171-.008.341-.025.507-.05.5-.174.976-.358 1.42l1.55.643c.33-.793.513-1.66.513-2.57 0-3.705-3.015-6.72-6.72-6.72-3.705 0-6.72 3.015-6.72 6.72 0 3.705 3.015 6.72 6.72 6.72 1.55 0 2.975-.533 4.114-1.418l4.778 4.778 1.188-1.188-5.975-5.975z" transform="translate(-481 -294)"/></svg>
