<svg width="39" height="39" viewBox="0 0 39 39" fill="none" xmlns="http://www.w3.org/2000/svg">
<path fill-rule="evenodd" clip-rule="evenodd" d="M19.4998 3.9001C28.1012 3.9001 35.0998 10.8987 35.0998 19.5001C35.0998 28.1015 28.1012 35.1001 19.4998 35.1001C10.8983 35.1001 3.89977 28.1015 3.89977 19.5001C3.89978 10.8986 10.8983 3.9001 19.4998 3.9001ZM17.5501 25.3501H21.4501V29.2501H17.5501V25.3501ZM17.5501 9.7501H21.4501V21.4501H17.5501V9.7501ZM19.5 39C30.2698 39 39 30.2679 39 19.5C39 8.7321 30.2699 1e-06 19.5 0C8.7321 -1e-06 1e-06 8.7321 0 19.5C-1e-06 30.2679 8.7321 39 19.5 39Z" fill="#041E42"/>
</svg>
