<svg xmlns="http://www.w3.org/2000/svg" width="14" height="14" viewBox="0 0 14 14">
    <g fill="none" fill-rule="evenodd">
        <g fill="#2A2C2C">
            <g>
                <g>
                    <path d="M7.583.583C7.583.261 7.323 0 7 0c-.322 0-.583.261-.583.583v5.834H.583C.261 6.417 0 6.677 0 7c0 .322.261.583.583.583h5.834v5.834c0 .322.26.583.583.583.322 0 .583-.261.583-.583V7.583h5.834c.322 0 .583-.26.583-.583 0-.322-.261-.583-.583-.583H7.583V.583z" transform="translate(-1093 -457) translate(978 439) translate(115 18)"/>
                </g>
            </g>
        </g>
    </g>
</svg>
