<svg width="50" height="32" xmlns="http://www.w3.org/2000/svg">
    <g fill="none" fill-rule="evenodd">
        <rect stroke="#E5E5E5" fill="#FFF" x=".5" y=".5" width="49" height="31" rx="3"/>
        <g fill-rule="nonzero">
            <path d="M17.95 24.461v-1.11a.659.659 0 0 0-.696-.703.684.684 0 0 0-.622.315.65.65 0 0 0-.584-.315.585.585 0 0 0-.518.263v-.218h-.385v1.768h.388v-.973a.414.414 0 0 1 .433-.47c.256 0 .385.167.385.466v.984h.388v-.98a.416.416 0 0 1 .433-.47c.263 0 .389.167.389.466v.984l.388-.007zm5.746-1.768h-.632v-.537h-.389v.537h-.351v.351h.359v.814c0 .41.159.655.614.655.17 0 .337-.047.48-.137l-.11-.33a.71.71 0 0 1-.34.1c-.185 0-.256-.118-.256-.295v-.807h.63l-.005-.351zm3.282-.045a.522.522 0 0 0-.466.26v-.215h-.381v1.768h.384v-.991c0-.293.126-.455.37-.455a.627.627 0 0 1 .24.044l.12-.37a.823.823 0 0 0-.275-.048l.008.007zm-4.961.185a1.323 1.323 0 0 0-.722-.185c-.447 0-.74.215-.74.566 0 .289.215.466.611.522l.185.026c.21.03.31.085.31.185 0 .137-.14.214-.403.214a.942.942 0 0 1-.588-.185l-.185.3c.224.157.493.237.766.23.51 0 .807-.241.807-.578 0-.336-.234-.473-.618-.529l-.185-.026c-.167-.022-.3-.055-.3-.173 0-.119.126-.208.337-.208.195.003.386.055.555.152l.17-.31zm10.305-.185a.522.522 0 0 0-.466.26v-.215h-.381v1.768h.384v-.991c0-.293.126-.455.37-.455a.627.627 0 0 1 .24.044l.12-.37a.823.823 0 0 0-.275-.048l.008.007zm-4.958.925a.893.893 0 0 0 .944.925.925.925 0 0 0 .636-.21l-.185-.312a.777.777 0 0 1-.462.16.568.568 0 0 1 0-1.133c.167.002.33.058.462.16l.185-.311a.925.925 0 0 0-.636-.211.893.893 0 0 0-.944.925v.007zm3.604 0v-.88h-.385v.214a.671.671 0 0 0-.555-.259.925.925 0 0 0 0 1.85.671.671 0 0 0 .555-.259v.215h.385v-.88zm-1.432 0a.535.535 0 1 1 1.067.063.535.535 0 0 1-1.067-.063zm-4.643-.925a.925.925 0 1 0 .026 1.85c.266.014.528-.072.734-.24l-.185-.285a.842.842 0 0 1-.514.185.49.49 0 0 1-.529-.433h1.314v-.148c0-.555-.344-.925-.84-.925l-.006-.004zm0 .344a.438.438 0 0 1 .448.43h-.925a.455.455 0 0 1 .47-.43h.007zm9.64.585v-1.595h-.37v.925a.671.671 0 0 0-.556-.259.925.925 0 1 0 0 1.85.671.671 0 0 0 .555-.259v.215h.37v-.877zm.641.627a.185.185 0 0 1 .128.05.172.172 0 0 1-.057.285.174.174 0 0 1-.07.015.185.185 0 0 1-.167-.108.174.174 0 0 1 .039-.192.185.185 0 0 1 .133-.05h-.006zm0 .313a.131.131 0 0 0 .096-.041.137.137 0 0 0 0-.185.137.137 0 0 0-.096-.04.139.139 0 0 0-.098.04.137.137 0 0 0 0 .185.137.137 0 0 0 .045.03.137.137 0 0 0 .059.01h-.006zm.011-.22c.018-.001.035.004.048.014.012.01.018.024.017.04a.044.044 0 0 1-.013.032.065.065 0 0 1-.039.017l.054.061h-.043l-.05-.061h-.016v.061h-.035v-.163l.077-.002zm-.04.03v.045h.04a.039.039 0 0 0 .022 0 .018.018 0 0 0 0-.016.018.018 0 0 0 0-.017.039.039 0 0 0-.022 0l-.04-.011zm-2.035-.75a.535.535 0 1 1 1.067.063.535.535 0 0 1-1.067-.063zm-12.991 0v-.884h-.385v.214a.671.671 0 0 0-.555-.259.925.925 0 0 0 0 1.85.671.671 0 0 0 .555-.259v.215h.385v-.877zm-1.432 0a.535.535 0 1 1 .537.566.53.53 0 0 1-.54-.566h.003z" fill="#231F20"/>
            <path fill="#FF5F00" d="M21.889 9.217h5.827v10.471h-5.827z"/>
            <path d="M22.26 14.454a6.648 6.648 0 0 1 2.543-5.237 6.66 6.66 0 1 0 0 10.472 6.648 6.648 0 0 1-2.544-5.235z" fill="#EB001B"/>
            <path d="M35.577 14.454a6.659 6.659 0 0 1-10.774 5.235 6.66 6.66 0 0 0 0-10.472 6.66 6.66 0 0 1 10.774 5.235v.002zM35.121 19.477v-.829h.303v-.171h-.766v.171h.328v.829h.135zm1.068-.007v-.993h-.182l-.211.71-.211-.71h-.161v.993h.13v-.745l.197.646h.136l.196-.646v.752l.106-.007z" fill="#F79E1B"/>
        </g>
    </g>
</svg>
