<svg width="19" height="16" viewBox="0 0 19 16" fill="none" xmlns="http://www.w3.org/2000/svg">
<path d="M18.1013 2.27679C17.5692 1.43261 16.7996 0.783513 15.8773 0.396893C14.8381 -0.0393835 13.6711 -0.117417 12.5042 0.169887C11.433 0.432363 10.3902 1.00697 9.46088 1.83696C8.53157 1.00697 7.48876 0.432363 6.41758 0.169887C5.25063 -0.117417 4.08367 -0.0393835 3.04441 0.396893C2.1222 0.783513 1.35606 1.43261 0.820464 2.27679C0.26359 3.15289 -0.0201669 4.22052 0.00111494 5.36265C0.0933361 10.4348 7.64838 15.0459 9.16293 15.922C9.25515 15.9752 9.35801 16 9.45733 16C9.55664 16 9.66305 15.9752 9.75173 15.922C11.2663 15.0494 18.8213 10.4348 18.9135 5.36265C18.9384 4.22052 18.6546 3.15289 18.1013 2.27679ZM17.736 5.34136C17.7076 6.98006 16.6116 8.89188 14.5756 10.8711C12.6886 12.7013 10.5392 14.0811 9.46088 14.7231C8.3826 14.0811 6.23668 12.7013 4.34615 10.8711C2.30664 8.89188 1.21418 6.98006 1.1858 5.34136C1.15388 3.55015 2.01934 2.11008 3.50197 1.48581C3.98791 1.28009 4.50576 1.18077 5.03426 1.18077C6.39275 1.18077 7.83282 1.84051 9.03879 3.06776C9.14874 3.18126 9.30126 3.24511 9.46088 3.24511C9.62049 3.24511 9.77301 3.18126 9.88297 3.06776C11.5607 1.36167 13.6818 0.755137 15.4233 1.48581C16.9024 2.11008 17.7679 3.55015 17.736 5.34136Z" fill="white"/>
</svg>
