<svg width="40" height="36" xmlns="http://www.w3.org/2000/svg">
    <g fill-rule="nonzero" fill="none">
        <path d="M35.016 22.71c.268-.055.544-.055.812.003.006 1.696-.01 3.393.008 5.089.24-.183.414-.44.674-.6.6-.39 1.37-.459 2.056-.292.54.125 1.015.515 1.228 1.028.192.453.215.956.203 1.442-.002 1.165.004 2.33-.002 3.496-.29.01-.581.019-.87-.009-.002-1.28.002-2.56-.001-3.841-.03-.412-.152-.855-.475-1.135-.394-.323-.94-.343-1.423-.277-.422.067-.82.303-1.042.674-.258.433-.308.95-.332 1.442-.008 1.05.007 2.1-.006 3.15a13.9 13.9 0 0 1-.828-.004c-.006-3.389-.002-6.778-.002-10.166zM.405 28.46c.493-.885 1.44-1.51 2.455-1.577.348-.012.702-.023 1.043.06a3.248 3.248 0 0 1 1.759 1.087 8.59 8.59 0 0 1-.633.563c-.247-.234-.467-.504-.77-.669-.586-.353-1.336-.364-1.962-.111-.423.165-.771.484-1.024.857-.672 1.002-.43 2.499.52 3.241.413.336.946.531 1.481.498.752-.022 1.447-.459 1.856-1.08.25.12.47.301.655.508-.589.785-1.516 1.352-2.514 1.346-1.41.07-2.816-.927-3.16-2.308-.207-.802-.133-1.694.294-2.415zM30.422 26.856a3.26 3.26 0 0 1 2.507.641c.75.58 1.248 1.512 1.213 2.47.04.844-.328 1.692-.947 2.263a3.202 3.202 0 0 1-2.322.948c-.544.037-1.053-.194-1.552-.373-.306-.104-.58-.276-.866-.424-.006.912.007 1.823-.005 2.735a8.817 8.817 0 0 1-.716-.005c-.005-2.623-.008-5.246.002-7.87.247-.01.495-.01.743.004.007.105.014.21.023.317.584-.366 1.247-.578 1.92-.706m.236.76a2.282 2.282 0 0 0-1.682 1.158c-.312.545-.373 1.207-.244 1.815.232 1.004 1.195 1.86 2.258 1.773.797.054 1.525-.454 1.93-1.11.36-.616.433-1.386.206-2.061-.15-.512-.523-.927-.947-1.235a2.254 2.254 0 0 0-1.521-.34zM9.104 26.916a3.185 3.185 0 0 1 2.37.72c.583.48.992 1.177 1.096 1.928.029.45.045.915-.09 1.351-.245.834-.872 1.528-1.638 1.922-.628.306-1.36.424-2.046.269a3.242 3.242 0 0 1-2.013-1.37 3.196 3.196 0 0 1-.286-2.834c.397-1.088 1.454-1.89 2.607-1.986m-.167.809c-.58.123-1.06.524-1.389 1.003a2.496 2.496 0 0 0-.313 1.834c.148.74.677 1.4 1.381 1.68.41.157.869.222 1.298.107.78-.155 1.423-.775 1.675-1.519.134-.37.128-.769.101-1.155a2.34 2.34 0 0 0-1.398-1.843c-.425-.183-.905-.163-1.355-.107zM16.781 27.256c.607-.383 1.377-.451 2.064-.278.457.114.86.416 1.102.817.21.373.292.806.28 1.23-.008 1.317.017 2.634-.012 3.95-.272.003-.542.005-.813-.004-.028-1.256.005-2.514-.017-3.77-.023-.472-.14-1-.544-1.293-.43-.3-.995-.312-1.489-.202-.46.095-.854.433-1.027.868a3.37 3.37 0 0 0-.217 1.037c-.004 1.109.004 2.218-.003 3.327-.275.013-.55.013-.825 0-.003-1.941-.006-3.882.001-5.822.258-.012.516-.012.774-.004.008.267.002.534.007.801.246-.212.438-.486.72-.657zM22.67 26.913c.584-.08 1.218-.023 1.715.32.3.208.572.506.658.87-.228.123-.444.27-.684.367a2.606 2.606 0 0 1-.066-.012c-.122-.175-.207-.383-.38-.518a1.352 1.352 0 0 0-1.154-.247c-.381.095-.71.457-.667.866.01.34.28.599.57.736.674.331 1.473.442 2.038.97.403.393.435.998.38 1.524-.07.55-.487 1-.979 1.222-.49.216-1.043.252-1.568.183-.714-.102-1.39-.582-1.619-1.281.256-.136.493-.356.78-.403.153.2.253.443.456.603.42.34 1.031.437 1.533.233a.926.926 0 0 0 .566-.697c.064-.314-.127-.611-.357-.806-.483-.423-1.14-.532-1.686-.841-.442-.233-.892-.586-.983-1.107-.033-.323-.04-.664.096-.967.228-.548.772-.925 1.352-1.015zM13.34 27.113c.278-.007.557-.006.837-.002.011 1.793 0 3.587.006 5.38 0 .162-.003.323-.015.484-.274.003-.548.004-.822-.001-.022-1.953-.008-3.907-.007-5.861zM26.312 31.798c.22-.096.503-.061.668.123.273.245.215.74-.101.922-.35.257-.919-.031-.91-.468-.027-.243.131-.471.343-.577z" fill="#00BDFF"/>
        <path d="M13.575 24.948c.188-.035.405-.035.56.093.26.187.292.603.086.842-.264.293-.824.239-.986-.136-.164-.298.03-.694.34-.799z" fill="#EBA231"/>
        <g>
            <path d="M14.966 7.563c.976-1.453 2.584-2.46 4.323-2.683 2.228-.346 4.623.612 5.952 2.442-.512.474-1.039.93-1.555 1.398-.6-.813-1.396-1.529-2.39-1.804-1.372-.38-2.961-.017-3.969 1.009-.773.787-1.274 1.875-1.236 2.992-.038 1.209.396 2.454 1.275 3.302.73.728 1.738 1.208 2.78 1.197 1.013.033 2.013-.374 2.779-1.028.391-.329.672-.76.953-1.181.546.41 1.117.795 1.627 1.252-.94 1.449-2.477 2.5-4.179 2.815-2.686.542-5.635-.95-6.802-3.428-.963-1.98-.822-4.466.442-6.283z" fill="#FFF"/>
            <path d="M18.973 1.352c1.89-.182 3.836.161 5.52 1.05 2.637 1.347 4.585 3.957 5.114 6.873.322 1.799.177 3.696-.5 5.4a9.835 9.835 0 0 1-5.242 5.422c-1.88.817-4.02 1-6.02.565-2.58-.562-4.889-2.229-6.246-4.491a9.691 9.691 0 0 1-1.406-5.166c-.003-2.599 1.114-5.17 2.995-6.96 1.55-1.517 3.63-2.47 5.785-2.693m-4.007 6.21c-1.264 1.818-1.405 4.303-.442 6.284 1.167 2.477 4.116 3.97 6.802 3.428 1.702-.315 3.24-1.366 4.179-2.815-.51-.457-1.08-.842-1.627-1.252-.281.42-.562.852-.953 1.181-.766.654-1.766 1.06-2.78 1.028-1.041.01-2.049-.47-2.779-1.197-.879-.848-1.313-2.093-1.275-3.302-.038-1.117.463-2.205 1.236-2.992 1.008-1.026 2.597-1.389 3.97-1.009.993.275 1.788.991 2.389 1.804.516-.467 1.043-.924 1.555-1.398-1.33-1.83-3.724-2.788-5.952-2.442-1.739.222-3.347 1.23-4.323 2.683z" fill="#1B5CC4"/>
            <path d="M18.797.04A18.715 18.715 0 0 1 20.925.02c2.649.204 5.2 1.427 7.038 3.34a11.029 11.029 0 0 1 3.038 6.232c.363 2.504-.195 5.127-1.514 7.283-1.772 2.936-4.964 4.982-8.388 5.284-1.066.062-2.146.071-3.198-.133-2.568-.477-4.935-1.91-6.572-3.942-1.383-1.713-2.257-3.843-2.426-6.042a22.113 22.113 0 0 1 0-1.904c.206-2.586 1.379-5.074 3.216-6.902A11.118 11.118 0 0 1 18.797.039m.176 1.313c-2.156.223-4.234 1.176-5.785 2.693-1.88 1.79-2.998 4.361-2.995 6.96a9.691 9.691 0 0 0 1.406 5.166c1.357 2.262 3.666 3.93 6.246 4.49 2 .435 4.14.253 6.02-.564a9.835 9.835 0 0 0 5.242-5.422c.677-1.704.822-3.601.5-5.4-.53-2.916-2.477-5.526-5.115-6.873-1.683-.889-3.63-1.232-5.52-1.05z" fill="#EBA231"/>
        </g>
    </g>
</svg>
