<svg xmlns="http://www.w3.org/2000/svg" width="57" height="57" viewBox="0 0 57 57">
    <g fill="none" fill-rule="evenodd">
        <g fill="#0091D2" fill-rule="nonzero">
            <g transform="translate(-159 -260) translate(159 260)">
                <circle cx="10.125" cy="10.125" r="3.375"/>
                <path d="M10.125 27c.288 0 .576-.11.795-.33.381-.38 9.33-9.411 9.33-16.545C20.25 4.542 15.708 0 10.125 0S0 4.542 0 10.125C0 17.259 8.949 26.29 9.33 26.67c.22.22.507.33.795.33zm0-24.75C14.467 2.25 18 5.783 18 10.125c0 5.069-5.732 11.781-7.875 14.114-2.144-2.333-7.875-9.045-7.875-14.114 0-4.342 3.533-7.875 7.875-7.875zM46.132 29.25c-.618 0-1.119.493-1.119 1.101v15.637h-6.326c-.558-4.948-4.83-8.81-10.003-8.81-5.172 0-9.445 3.862-10.003 8.81h-7.444V30.351c0-.608-.501-1.101-1.119-1.101-.617 0-1.118.493-1.118 1.101V47.09c0 .608.5 1.101 1.118 1.101h8.563C19.239 53.14 23.512 57 28.684 57s9.445-3.861 10.003-8.81h7.445c.617 0 1.118-.493 1.118-1.1V30.35c0-.608-.5-1.101-1.118-1.101zM28.684 54.798c-4.317 0-7.829-3.458-7.829-7.709 0-4.25 3.512-7.708 7.83-7.708 4.316 0 7.828 3.458 7.828 7.708s-3.512 7.709-7.829 7.709z"/>
                <path d="M28.875 41.25c-3.102 0-5.625 2.523-5.625 5.625s2.523 5.625 5.625 5.625 5.625-2.523 5.625-5.625-2.523-5.625-5.625-5.625zm0 2.25c.52 0 1.014.119 1.454.33l-4.5 4.5c-.21-.441-.329-.935-.329-1.455 0-1.861 1.514-3.375 3.375-3.375zm0 6.75c-.52 0-1.014-.119-1.454-.33l4.5-4.5c.21.441.329.935.329 1.455 0 1.861-1.514 3.375-3.375 3.375zM56.42 19.318c.376-1.122.58-2.322.58-3.568s-.204-2.446-.58-3.568c-.022-.128-.066-.249-.127-.358C54.696 7.55 50.573 4.5 45.75 4.5c-4.823 0-8.946 3.05-10.543 7.324-.061.11-.105.23-.127.358-.376 1.122-.58 2.322-.58 3.568 0 1.247.204 2.446.58 3.568.022.128.066.249.127.358C36.804 23.95 40.927 27 45.75 27c4.823 0 8.946-3.05 10.543-7.324.061-.11.105-.23.127-.358zM45.75 24.75c-.699 0-1.524-.88-2.154-2.297-.292-.658-.536-1.4-.726-2.203h5.76c-.19.803-.434 1.545-.726 2.203-.63 1.417-1.455 2.297-2.154 2.297zM42.492 18c-.077-.727-.117-1.48-.117-2.25s.04-1.523.117-2.25h6.516c.077.727.117 1.48.117 2.25s-.04 1.523-.117 2.25h-6.516zm-5.742-2.25c0-.777.099-1.53.285-2.25h3.193c-.067.723-.103 1.475-.103 2.25 0 .775.036 1.527.103 2.25h-3.193c-.186-.72-.285-1.473-.285-2.25zm9-9c.699 0 1.524.88 2.154 2.297.292.658.536 1.4.726 2.203h-5.76c.19-.803.434-1.545.726-2.203.63-1.417 1.455-2.297 2.154-2.297zm5.522 6.75h3.193c.186.72.285 1.473.285 2.25 0 .777-.1 1.53-.285 2.25h-3.193c.067-.723.103-1.475.103-2.25 0-.775-.036-1.527-.103-2.25zm2.267-2.25h-2.6c-.279-1.353-.684-2.557-1.189-3.559 1.585.79 2.904 2.033 3.79 3.559zM41.75 7.691c-.504 1.002-.91 2.206-1.188 3.559h-2.6c.885-1.526 2.204-2.77 3.789-3.559zM37.962 20.25h2.6c.279 1.353.684 2.557 1.189 3.559-1.585-.79-2.904-2.033-3.79-3.559zm11.79 3.559c.504-1.002.91-2.206 1.188-3.559h2.6c-.885 1.526-2.204 2.77-3.789 3.559z"/>
            </g>
        </g>
    </g>
</svg>
