<svg width="50" height="14" xmlns="http://www.w3.org/2000/svg">
    <g fill="#4BA658" fill-rule="nonzero">
        <path d="M26.915 4.12c-.654-.665-1.497-1.026-2.398-1.026-.654 0-1.307.252-1.67.496-.745.504-1.365 1.059-2.473 2.53v1.051c.951-1.253 1.827-2.236 2.497-2.783a2.687 2.687 0 0 1 1.637-.597c1.472 0 2.704 1.27 2.704 2.766v.64c0 .747-.29 1.437-.802 1.966a2.666 2.666 0 0 1-1.902.816 2.658 2.658 0 0 1-2.555-2.001l-.48.605c.348 1.21 1.63 2.11 3.035 2.11.893 0 1.745-.37 2.398-1.025.654-.664 1-1.539 1-2.447v-.638a3.432 3.432 0 0 0-.991-2.464m-14.868-.328c.455 0 .86.11 1.224.312.174-.22.34-.404.472-.53-.38-.303-1.034-.488-1.696-.488-.95 0-1.802.353-2.414.992-.604.64-.95 1.522-.95 2.489v4.119h.677v-4.12c0-1.622 1.1-2.774 2.687-2.774m6.574 6.902V6.591c0-1.27-.967-2.253-2.191-2.253-.579 0-1.116.235-1.546.672a2.247 2.247 0 0 0-.654 1.58v.64c0 1.219 1 2.253 2.192 2.253.33 0 .769-.084 1.041-.311v-.748c-.264.218-.653.344-1.041.344-.844 0-1.514-.68-1.514-1.547v-.638c0-.866.662-1.547 1.514-1.547.851 0 1.513.68 1.513 1.547v4.102h.678v.008h.008zM0 6.187v.236C0 7.675.455 8.836 1.273 9.7a4.267 4.267 0 0 0 3.118 1.346c.95 0 1.786-.227 2.497-.665.587-.37.843-.74.876-.765V5.733H4.225v.723h2.853V9.39c-.33.345-1.125.934-2.68.934a3.589 3.589 0 0 1-2.637-1.135C1.058 8.457.686 7.474.686 6.414V6.18c0-.992.439-2 1.191-2.74a4.02 4.02 0 0 1 2.828-1.17c.976 0 1.67.152 2.216.497V1.95c-.579-.252-1.257-.37-2.216-.37C2.158 1.606 0 3.707 0 6.187m12.047-1.16c.257 0 .48.042.654.126.082-.218.173-.403.297-.613-.182-.143-.628-.219-.95-.219-1.25-.008-2.183.967-2.183 2.253v4.12h.678v-4.12c0-.908.62-1.547 1.504-1.547M6.93 4.17v-.858c-.628-.344-1.306-.504-2.216-.504-.926 0-1.802.353-2.472.992a3.276 3.276 0 0 0-1.034 2.387v.236c0 1.858 1.439 3.38 3.192 3.38 1.439 0 2.026-.488 2.175-.64V6.994h-2.34v.723h1.695v1.085H5.92c-.215.084-.67.277-1.521.277a2.42 2.42 0 0 1-1.77-.765 2.725 2.725 0 0 1-.735-1.883v-.235c0-1.438 1.29-2.648 2.81-2.648 1.06-.017 1.68.16 2.225.622m16.48 1.345c.306-.311.71-.496 1.108-.496.851 0 1.513.68 1.513 1.547v.639c0 .866-.662 1.546-1.513 1.546-.414 0-.81-.227-1.117-.647a2.56 2.56 0 0 1-.48-1.32l-.553.69c.107.53.38 1.042.769 1.404.397.37.893.571 1.397.571 1.216 0 2.2-1.009 2.2-2.253v-.639c0-.588-.232-1.143-.654-1.58-.421-.429-.967-.673-1.546-.673-.364 0-.934.126-1.629.765-.182.185-.62.63-.884.95a26.523 26.523 0 0 0-1.63 1.993v1.101c.604-.799.96-1.244 1.53-1.925.496-.614 1.125-1.354 1.489-1.673M13.048 7.23c0 .916.347 1.782 1 2.446.654.664 1.489 1.026 2.382 1.026.38 0 .769-.084 1.042-.219v-.706a2.694 2.694 0 0 1-1.042.219c-1.455 0-2.704-1.27-2.704-2.766v-.64c0-1.504 1.232-2.765 2.704-2.765.728 0 1.406.278 1.918.799.513.521.786 1.21.786 1.959v4.102h.678V6.44a3.533 3.533 0 0 0-1.05-2.363 3.313 3.313 0 0 0-2.332-.975c-.893 0-1.737.37-2.381 1.026-.654.664-1.001 1.521-1.001 2.446v.656zm8.045-2.758c.215-.26.422-.52.678-.748V0h-.678v4.472zm1.191-1.034V.008h.695v2.943c-.199.11-.463.286-.695.487M30.233 1.802c.368 0 .887 0 1.498-.033 1.407-.033 1.499-.033 1.65 0 .828.09 1.682.148 2.319.782.67.658.737 1.53.737 1.769 0 .214.033 1.234-.737 2.04-.46.478-.98.66-1.223.725-.427.148-.795.148-1.557.181h-1.097v3.333h-1.59c.025-2.938.025-5.851 0-8.797zm1.649 4.263c.184 0 .486.032.829.032.737-.032 1.13-.032 1.465-.271.335-.214.486-.51.553-.6.058-.149.184-.388.184-.692 0-.058 0-.749-.52-1.169-.368-.296-.761-.329-1.431-.362-.427-.033-.795 0-1.038.058-.042.963-.042 1.983-.042 3.004zM41.284 10.599c-.033-.239-.058-.477-.092-.724-.184.214-.67.633-1.406.814-.185.033-1.407.33-2.228-.477-.577-.568-.577-1.325-.577-1.407 0-.148 0-.568.276-.988.276-.386.645-.567.946-.724.486-.214.737-.214 2.202-.452.276-.058.486-.09.611-.124v-.362c-.033-.148-.092-.477-.335-.724-.301-.33-.736-.362-1.096-.387-.913-.057-1.683.272-2.135.51V4.353a4.91 4.91 0 0 1 2.41-.51c.579.033 1.374.09 1.985.658.83.782.762 1.893.737 2.098v3.966c-.377.034-.837.034-1.298.034zm-.21-3.029c-.46.033-.853.091-1.13.149-.761.123-.979.238-1.163.386-.059.058-.243.239-.276.51-.059.297.058.601.276.815.218.181.485.214.737.214.092 0 .368 0 .67-.09.276-.09.46-.239.577-.362.126-.09.218-.214.302-.272.008-.453.008-.897.008-1.35zM45.043 4.024A51.536 51.536 0 0 1 46.3 7.447c.151.51.302.988.427 1.473.277-.872.578-1.745.888-2.609.276-.781.552-1.53.829-2.254H50c-.553 1.407-1.13 2.822-1.683 4.262-.368.815-.611 1.473-.795 1.95-.184.544-.302.93-.611 1.474-.394.691-.762.963-.913 1.053a2.363 2.363 0 0 1-.829.362c-.427.148-.829.181-1.097.214v-1.259a2 2 0 0 0 .946-.362c.059-.033.243-.181.427-.42.059-.057.126-.214.277-.543.125-.239.15-.296.15-.42 0-.148-.058-.238-.092-.329L43.37 4.065c.544-.041 1.097-.041 1.674-.041z"/>
    </g>
</svg>
