<svg width="50" height="13" xmlns="http://www.w3.org/2000/svg">
    <g fill-rule="nonzero" fill="none">
        <path d="M10.5 0H2.002A2.01 2.01 0 0 0 0 2.02v8.568a2.01 2.01 0 0 0 2.003 2.02h8.496a2.01 2.01 0 0 0 2.002-2.02V2.02A2.01 2.01 0 0 0 10.499 0" fill="#14ACEE"/>
        <path d="M3.378 9.695c-1.945 0-2.52-1.545-1.559-2.39.32-.286.907-.425 1.22-.456 1.155-.115 2.224.33 3.486.95-.887 1.167-2.017 1.896-3.147 1.896m6.914-1.779c-.5-.169-1.171-.427-1.919-.7.45-.787.808-1.683 1.044-2.658H6.953v-.895H9.97v-.5H6.953V1.673H5.72c-.216 0-.216.215-.216.215v1.277H2.452v.5h3.053v.894H2.984v.5h4.889a8.83 8.83 0 0 1-.705 1.735c-1.586-.527-3.279-.955-4.342-.692-.68.17-1.118.47-1.375.787-1.181 1.449-.334 3.65 2.16 3.65 1.475 0 2.895-.83 3.996-2.196 1.642.796 4.894 2.163 4.894 2.163V8.557s-.408-.033-2.209-.64" fill="#FFF"/>
        <path d="M27.145 1.846c0 .652.476 1.09 1.141 1.09s1.142-.438 1.142-1.09c0-.64-.477-1.092-1.142-1.092-.665 0-1.141.452-1.141 1.092" fill="#14ACEE"/>
        <path fill="#000" d="M23.959 10.187h1.982V1.03h-1.982zM17.599 7.014l1.179-4.077h.05l1.117 4.077h-2.346zm2.885-5.67h-2.66l-2.972 8.843h1.831l.502-1.73h3.148l.477 1.73h2.346l-2.672-8.843zM27.295 10.187h1.982V3.464h-1.982zM49.988 3.476 50 3.464h-1.869l-1.179 4.089h-.063l-1.354-4.09h-2.22l2.671 6.75-1.116 2.056v.05h1.743zM32.953 9.033c-.226 0-.44-.025-.677-.1V5.295c.413-.288.752-.426 1.179-.426.74 0 1.33.59 1.33 1.844 0 1.605-.866 2.32-1.832 2.32m1.254-5.707c-.727 0-1.292.276-1.931.803v-.665h-1.983v8.856h1.983v-2.196c.376.1.727.151 1.153.151 1.77 0 3.362-1.305 3.362-3.625 0-2.082-1.154-3.324-2.584-3.324M40.944 8.557c-.527.288-.829.4-1.18.4-.476 0-.777-.313-.777-.814 0-.189.037-.377.188-.527.238-.239.702-.414 1.769-.665v1.606zm1.981-.05v-2.81c0-1.53-.903-2.371-2.496-2.371-1.016 0-1.718.175-2.998.564l.351 1.543c1.167-.527 1.681-.753 2.22-.753.653 0 .942.465.942 1.18v.05c-2.271.426-2.973.665-3.412 1.104-.326.326-.464.79-.464 1.33 0 1.291 1.003 1.981 1.944 1.981.702 0 1.267-.263 2.032-.84l.138.702h1.982l-.239-1.68z"/>
    </g>
</svg>
