<svg xmlns="http://www.w3.org/2000/svg" xmlns:xlink="http://www.w3.org/1999/xlink" width="20" height="20" viewBox="0 0 20 20">
    <defs>
        <path id="e00tat5o6a" d="M17.985 2.015C16.685.715 14.964 0 13.138 0H6.862C5.036 0 3.315.716 2.015 2.015.715 3.315 0 5.036 0 6.862v6.276c0 1.826.716 3.547 2.015 4.847C3.315 19.285 5.036 20 6.862 20h6.276c1.826 0 3.547-.716 4.847-2.015 1.3-1.3 2.015-3.021 2.015-4.847V6.862c0-1.826-.716-3.547-2.015-4.847zM10 4.707c2.918 0 5.293 2.374 5.293 5.293 0 2.918-2.374 5.293-5.293 5.293S4.707 12.919 4.707 10 7.081 4.707 10 4.707zM15.5 3.5c.552 0 1 .448 1 1s-.448 1-1 1-1-.448-1-1 .448-1 1-1z"/>
    </defs>
    <g fill="none" fill-rule="evenodd">
        <g>
            <g>
                <g>
                    <path fill="#AAA" fill-rule="nonzero" d="M10 5.879c-2.272 0-4.121 1.849-4.121 4.121 0 2.272 1.849 4.121 4.121 4.121 2.272 0 4.121-1.849 4.121-4.121 0-2.272-1.848-4.121-4.121-4.121z" transform="translate(-1568 -2918) translate(530 2725) translate(1038 193)"/>
                    <g transform="translate(-1568 -2918) translate(530 2725) translate(1038 193)">
                        <use fill="#AAA" fill-rule="nonzero" xlink:href="#e00tat5o6a"/>
                    </g>
                </g>
            </g>
        </g>
    </g>
</svg>
