<svg width="18" height="16" viewBox="0 0 18 16" fill="none" xmlns="http://www.w3.org/2000/svg">
<path d="M17.2256 2.16664C16.7193 1.3633 15.9868 0.745609 15.1092 0.377693C14.1203 -0.0374783 13.0098 -0.111737 11.8993 0.161669C10.8799 0.411447 9.88754 0.958258 9.00319 1.7481C8.11884 0.958258 7.12648 0.411447 6.10712 0.161669C4.99662 -0.111737 3.88612 -0.0374783 2.89713 0.377693C2.01954 0.745609 1.29046 1.3633 0.780773 2.16664C0.250839 3.00036 -0.0191913 4.01635 0.001061 5.10322C0.0888208 9.93001 7.27837 14.318 8.71966 15.1517C8.80742 15.2023 8.90531 15.226 8.99982 15.226C9.09433 15.226 9.19559 15.2023 9.27997 15.1517C10.7213 14.3214 17.9108 9.93001 17.9986 5.10322C18.0222 4.01635 17.7522 3.00036 17.2256 2.16664ZM16.8779 5.08297C16.8509 6.64239 15.808 8.46172 13.8705 10.3452C12.0748 12.0869 10.0293 13.3999 9.00319 14.0108C7.97708 13.3999 5.93497 12.0869 4.1359 10.3452C2.19506 8.46172 1.15544 6.64239 1.12844 5.08297C1.09806 3.3784 1.92165 2.008 3.33256 1.41393C3.79498 1.21816 4.28779 1.12365 4.79072 1.12365C6.08349 1.12365 7.45389 1.75147 8.60152 2.91935C8.70616 3.02736 8.8513 3.08812 9.00319 3.08812C9.15508 3.08812 9.30023 3.02736 9.40486 2.91935C11.0014 1.2958 13.0199 0.718606 14.6772 1.41393C16.0847 2.008 16.9083 3.3784 16.8779 5.08297Z" fill="#AAAAAA"/>
</svg>
