<svg xmlns="http://www.w3.org/2000/svg" width="20" height="20" viewBox="0 0 20 20">
    <defs>
        <filter id="f3hp9tr5ja" color-interpolation-filters="auto">
            <feColorMatrix in="SourceGraphic" values="0 0 0 0 0.164706 0 0 0 0 0.172549 0 0 0 0 0.172549 0 0 0 1.000000 0"/>
        </filter>
    </defs>
    <g fill="none" fill-rule="evenodd">
        <g>
            <g filter="url(#f3hp9tr5ja)" transform="translate(-474.000000, -292.000000) translate(474.000000, 292.000000)">
                <path fill="#2A2C2C" d="M16.27 9.244c0 3.724-3.076 6.744-6.871 6.744-3.795 0-6.871-3.02-6.871-6.744 0-3.725 3.076-6.744 6.87-6.744 3.796 0 6.872 3.02 6.872 6.744zm-1.684 6.483c-1.428 1.102-3.23 1.76-5.187 1.76C4.76 17.486 1 13.795 1 9.243 1.001 4.69 4.761 1 9.399 1s8.398 3.69 8.398 8.243c0 2.09-.794 4-2.101 5.453l3.081 3.025c.299.292.299.767 0 1.06-.298.292-.781.292-1.08 0l-3.111-3.055z"/>
            </g>
        </g>
    </g>
</svg>
