<svg width="13" height="12" viewBox="0 0 13 12" fill="none" xmlns="http://www.w3.org/2000/svg">
<path fill-rule="evenodd" clip-rule="evenodd" d="M1.65417 0.198025C1.39014 -0.0660084 0.962058 -0.0660084 0.698025 0.198025C0.433992 0.462059 0.433992 0.89014 0.698025 1.15418L5.60891 6.06508L0.828189 10.8458C0.564156 11.1099 0.564156 11.5379 0.828189 11.802C1.09222 12.066 1.52031 12.066 1.78434 11.802L6.56507 7.02127L11.2157 11.6719C11.4797 11.9359 11.9078 11.9359 12.1718 11.6719C12.4359 11.4078 12.4359 10.9797 12.1718 10.7157L7.5212 6.06508L12.302 1.28431C12.566 1.02027 12.566 0.592193 12.302 0.328159C12.0379 0.0641247 11.6099 0.0641246 11.3458 0.328159L6.56507 5.10893L1.65417 0.198025Z" fill="#1D1D1B"/>
</svg>
