<svg xmlns="http://www.w3.org/2000/svg" width="14" height="9" viewBox="0 0 14 9">
    <g fill="none" fill-rule="evenodd">
        <g fill="#6B6B6B">
            <g>
                <g>
                    <path d="M7 4.38c-2.417 0-3.973-1.163-4.925-2.303-.48-.574-.81-1.147-1.019-1.573L.978.334C.854.05.591-.076.36.048.139.168.043.51.158.784c.053.127.108.252.153.343.18.366.434.821.776 1.298L.095 4.192c-.144.257-.122.65.05.877.171.227.427.203.572-.054l1.01-1.8c.552.602 1.25 1.18 2.115 1.607l-.655 2.045c-.094.294.003.66.216.815.214.155.463.043.557-.251l.724-2.261c.564.189 1.187.315 1.873.353v2.899c0 .32.199.578.443.578s.443-.259.443-.578V5.523c.686-.038 1.309-.164 1.873-.353l.724 2.26c.094.295.343.407.557.252.213-.156.31-.52.216-.815l-.655-2.045c.865-.428 1.563-1.005 2.115-1.607l1.01 1.8c.145.257.4.281.572.054.172-.227.194-.62.05-.877l-.992-1.766c.342-.478.597-.933.777-1.3.054-.11.108-.224.16-.34.122-.276.016-.615-.21-.738l-.006-.003c-.223-.121-.48.014-.606.283l-.084.176c-.21.426-.54 1-1.019 1.573C10.973 3.217 9.417 4.38 7 4.38z" transform="translate(-815 -1168) translate(529 1147) translate(286 21)"/>
                </g>
            </g>
        </g>
    </g>
</svg>
