<svg xmlns="http://www.w3.org/2000/svg" width="16" height="16" viewBox="0 0 16 16">
    <g fill="none" fill-rule="evenodd">
        <g fill="#FFF">
            <g>
                <g>
                    <g>
                        <path d="M10.24 3.84c0 1.414-1.146 2.56-2.56 2.56-1.414 0-2.56-1.146-2.56-2.56 0-1.414 1.146-2.56 2.56-2.56 1.414 0 2.56 1.146 2.56 2.56zm1.28 0c0 2.12-1.72 3.84-3.84 3.84S3.84 5.96 3.84 3.84 5.56 0 7.68 0s3.84 1.72 3.84 3.84zm-6.4 5.12C2.292 8.96 0 11.252 0 14.08v.64c0 .353.287.64.64.64.353 0 .64-.287.64-.64v-.64c0-2.12 1.72-3.84 3.84-3.84h5.12c2.12 0 3.84 1.72 3.84 3.84v.64c0 .353.287.64.64.64.353 0 .64-.287.64-.64v-.64c0-2.828-2.292-5.12-5.12-5.12H5.12z" transform="translate(-1876 -981) translate(530 930) translate(1346 51)"/>
                    </g>
                </g>
            </g>
        </g>
    </g>
</svg>
