<svg width="50" height="50" viewBox="0 0 50 50" xmlns="http://www.w3.org/2000/svg">
    <path d="M37.875 15.696a1.786 1.786 0 0 1 0 2.536L21.804 34.304c-.337.334-.794.52-1.268.517h-.107a1.786 1.786 0 0 1-1.286-.678L12 25.214A1.786 1.786 0 1 1 14.786 23l5.893 7.357 14.66-14.66a1.786 1.786 0 0 1 2.536 0zM50 25c0 13.807-11.193 25-25 25S0 38.807 0 25 11.193 0 25 0a25 25 0 0 1 25 25zm-3.571 0c0-11.835-9.594-21.429-21.429-21.429C13.165 3.571 3.571 13.165 3.571 25c0 11.835 9.594 21.429 21.429 21.429A21.429 21.429 0 0 0 46.429 25z" fill="#000" fill-rule="nonzero"/>
</svg>
