<svg width="50" height="28" xmlns="http://www.w3.org/2000/svg" xmlns:xlink="http://www.w3.org/1999/xlink">
    <defs>
        <path id="a" d="M0 0h50v27.185H0z"/>
        <path id="c" d="M0 27.185h50V0H0z"/>
    </defs>
    <g fill="none" fill-rule="evenodd">
        <mask id="b" fill="#fff">
            <use xlink:href="#a"/>
        </mask>
        <path d="M46.99 27.185H3.01A3.01 3.01 0 0 1 0 24.175V3.01A3.01 3.01 0 0 1 3.01 0h43.98A3.01 3.01 0 0 1 50 3.01v21.165a3.01 3.01 0 0 1-3.01 3.01" fill="#007AFA" mask="url(#b)"/>
        <path d="M1.138 21.537c-.004-.002-.014.007-.014-.006v-.054L1.123 5.709c0-.05.011-.062.062-.062h47.628c.05 0 .062.011.062.062l-.002 15.768c0 .02.015.046-.013.06a.142.142 0 0 1-.017-.02c-.013-.025-.013-.053-.013-.08V5.88c0-.195.008-.187-.189-.187H1.36c-.04 0-.08 0-.12.002-.043.003-.066.025-.069.068-.002.04-.001.08-.001.121v15.464c0 .057.009.114-.015.169a.142.142 0 0 1-.016.021" fill="#5DABFE"/>
        <path d="m1.138 21.537.001-.014c.019-.024.045-.028.073-.029h47.574c.028.001.054.005.073.029l.001.014H1.138z" fill="#2F92FE"/>
        <path d="M9.07 18.459c-1.18-.013-2.231-.383-3.133-1.149a4.761 4.761 0 0 1-1.666-2.95 4.732 4.732 0 0 1 .392-2.82A4.814 4.814 0 0 1 6.78 9.304a4.668 4.668 0 0 1 1.822-.55c1.27-.116 2.414.217 3.433.981a.532.532 0 0 1 .221.55.53.53 0 0 1-.398.438.532.532 0 0 1-.489-.095 3.725 3.725 0 0 0-2.528-.772 3.562 3.562 0 0 0-1.474.403c-1.09.583-1.772 1.48-1.983 2.701-.197 1.14.087 2.17.834 3.055a3.609 3.609 0 0 0 2.323 1.286c1.026.143 1.957-.1 2.79-.715.25-.184.51-.189.735-.007a.551.551 0 0 1-.004.857 4.735 4.735 0 0 1-1.964.914c-.12.025-.241.048-.363.064a4.44 4.44 0 0 1-.664.045" fill="#002CB7"/>
        <path d="M10.626 13.032c.327 0 .655-.002.982.001.31.003.551.252.55.57a2.962 2.962 0 0 1-.773 2.026c-.716.794-1.619 1.137-2.68 1.02a3.064 3.064 0 0 1-2.664-2.547c-.27-1.65.76-3.128 2.272-3.492.85-.205 1.655-.085 2.403.376a.554.554 0 0 1 .238.65.57.57 0 0 1-.851.295c-.773-.466-1.73-.37-2.376.259-.533.518-.721 1.157-.54 1.877.18.712.643 1.19 1.348 1.4a1.942 1.942 0 0 0 2.39-1.237c.025-.07.025-.071-.05-.07-.406 0-.812.003-1.218 0a.563.563 0 1 1-.013-1.126h.982v-.002zM22.805 13.111h1.15c.247 0 .41.17.397.415-.01.23-.001.462-.042.69-.19 1.059-.787 1.783-1.778 2.2-1.038.438-2.279.247-3.068-.356-.882-.673-1.279-1.573-1.22-2.676.076-1.44 1.105-2.393 2.025-2.679 1.176-.366 2.254-.187 3.189.654.121.11.226.236.321.37a.288.288 0 0 1-.088.425c-.146.088-.294.172-.443.255a.295.295 0 0 1-.385-.08c-.333-.432-.78-.656-1.316-.708-.463-.045-.906.03-1.302.284a1.88 1.88 0 0 0-.889 1.441c-.05.453.011.89.25 1.284.336.554.833.88 1.475.955.761.089 1.39-.18 1.88-.766.156-.185.242-.407.295-.642.01-.048.004-.065-.052-.065-.52.002-1.04.002-1.561.001-.203 0-.32-.118-.321-.322v-.37c.002-.19.122-.31.313-.31h1.17M34.885 12.67v-.536c0-.203.083-.287.284-.287h.578c.163 0 .256.093.256.254v4.244c0 .162-.094.256-.254.256h-.611c-.156 0-.25-.095-.253-.252-.002-.122 0-.245 0-.368a2.34 2.34 0 0 1-.019-.014c-.031.036-.06.075-.095.108-.298.285-.638.496-1.049.565-.71.121-1.334-.066-1.856-.563-.407-.386-.628-.872-.711-1.422-.084-.558-.028-1.1.213-1.615.503-1.079 1.612-1.432 2.513-1.204.356.09.656.273.869.581.053.078.092.163.135.253M28.16 16.658c-.698-.003-1.28-.14-1.795-.488-.801-.542-1.261-1.293-1.348-2.263-.058-.65.038-1.273.369-1.842.487-.836 1.206-1.346 2.17-1.493.784-.12 1.521.01 2.195.445.306.198.565.447.773.747.108.158.078.29-.089.387l-.494.287c-.14.08-.257.053-.348-.08a1.66 1.66 0 0 0-.959-.674 2.04 2.04 0 0 0-1.486.132c-.61.306-.942.82-1.024 1.491-.053.433-.006.857.2 1.249.312.594.81.925 1.473 1.006.388.047.765.007 1.123-.161.277-.131.508-.318.678-.576.084-.126.206-.154.339-.078.172.096.343.194.514.292.145.084.179.226.083.365-.433.628-1.03 1.01-1.768 1.182a2.722 2.722 0 0 1-.605.072M42.535 12.336c.204-.181.423-.305.667-.381.45-.14.902-.15 1.35-.002.647.214 1.014.684 1.172 1.333a2.7 2.7 0 0 1 .067.64v2.389c0 .201-.085.286-.286.286h-.565c-.156 0-.25-.095-.25-.251-.001-.796 0-1.592-.003-2.388a1.5 1.5 0 0 0-.127-.602c-.197-.447-.596-.635-1.042-.601-.53.04-.856.402-.954.921-.021.115-.03.231-.03.348l.001 2.287c0 .2-.086.286-.287.286h-.565c-.164 0-.26-.094-.26-.257v-5.819c0-.156.092-.254.249-.256.204-.003.408-.003.612 0 .159.002.25.1.251.262V12.336zM37.352 15.035h.343c.102.002.187.056.216.151.09.29.3.438.58.502.247.058.494.04.731-.057.07-.028.13-.07.182-.125a.344.344 0 0 0-.035-.52 1.135 1.135 0 0 0-.365-.183c-.286-.097-.583-.16-.871-.25a3.27 3.27 0 0 1-.697-.296c-.767-.45-.792-1.512-.14-2.04a1.97 1.97 0 0 1 .97-.414c.433-.064.86-.044 1.271.115.547.21.873.609.979 1.185.033.18-.07.304-.254.305h-.598c-.127-.001-.218-.06-.246-.17-.077-.296-.281-.442-.568-.49a1.176 1.176 0 0 0-.616.048c-.211.079-.314.248-.274.443.023.116.1.192.195.253.164.106.35.161.534.215.34.1.685.18 1.01.322.22.096.424.216.587.395.467.51.404 1.329-.138 1.799a1.82 1.82 0 0 1-.893.408c-.554.099-1.092.05-1.597-.21-.427-.219-.732-.547-.857-1.023a1.08 1.08 0 0 1-.02-.085.232.232 0 0 1 .228-.278h.343z" fill="#FEFEFE"/>
        <path d="M15.749 13.594a6.77 6.77 0 0 1-.697 2.977c-.168.344-.551.439-.829.26a.556.556 0 0 1-.194-.718 5.559 5.559 0 0 0 .58-2.996 5.57 5.57 0 0 0-.575-2.03.558.558 0 1 1 1.001-.492c.367.725.593 1.492.676 2.301.024.232.04.464.038.698" fill="#6FB9F6"/>
        <path d="M13.945 13.558a4.914 4.914 0 0 1-.441 2.063.56.56 0 1 1-1.018-.466c.18-.393.29-.806.326-1.236a3.722 3.722 0 0 0-.316-1.861c-.126-.28-.048-.572.194-.73a.556.556 0 0 1 .803.222c.169.346.281.712.357 1.09.063.314.091.633.095.918" fill="#6FB9F6"/>
        <mask id="d" fill="#fff">
            <use xlink:href="#c"/>
        </mask>
        <path fill="#0070FE" mask="url(#d)" d="M21.584 13.098h2.43v-.006h-2.43z"/>
        <path d="M34.885 14.334a1.437 1.437 0 0 1-.384.955 1.25 1.25 0 0 1-1.98-.176c-.333-.528-.364-1.09-.09-1.653.23-.472.628-.714 1.153-.703.542.012.932.281 1.163.772.098.208.138.432.138.805" fill="#007CFE" mask="url(#d)"/>
    </g>
</svg>
