<svg width="50" height="32" xmlns="http://www.w3.org/2000/svg">
    <g fill="none" fill-rule="evenodd">
        <rect stroke="#E5E5E5" fill="#FFF" x=".5" y=".5" width="49" height="31" rx="3"/>
        <g fill-rule="nonzero">
            <path fill="#00579F" d="M22.665 20.68h-2.66l1.664-10.24h2.66zM32.308 10.691a6.583 6.583 0 0 0-2.386-.436c-2.627 0-4.477 1.394-4.488 3.388-.022 1.47 1.325 2.287 2.331 2.778 1.03.5 1.38.828 1.38 1.274-.011.686-.832 1.002-1.598 1.002-1.062 0-1.631-.163-2.496-.544l-.35-.164-.372 2.299c.623.283 1.773.534 2.966.545 2.791 0 4.609-1.373 4.63-3.497.01-1.166-.7-2.059-2.233-2.789-.93-.468-1.5-.784-1.5-1.264.011-.435.482-.882 1.532-.882.865-.022 1.5.185 1.982.392l.24.109.362-2.211zM35.844 17.053l1.062-2.865c-.012.022.218-.6.35-.98l.185.882s.504 2.45.614 2.963h-2.211zm3.283-6.612H37.07c-.634 0-1.116.185-1.39.85l-3.951 9.389h2.791l.558-1.536h3.416c.076.36.317 1.536.317 1.536h2.463l-2.146-10.24zM17.783 10.44l-2.605 6.983-.285-1.416c-.481-1.634-1.992-3.41-3.677-4.292l2.386 8.954h2.813l4.181-10.228h-2.813z"/>
            <path d="M12.76 10.44H8.48l-.045.208c3.339.85 5.55 2.897 6.458 5.36l-.93-4.707c-.153-.654-.624-.839-1.204-.86z" fill="#FAA61A"/>
        </g>
    </g>
</svg>
