<svg width="34" height="34" viewBox="0 0 34 34" fill="none" xmlns="http://www.w3.org/2000/svg">
<path fill-rule="evenodd" clip-rule="evenodd" d="M16.9 2.6C9.00233 2.6 2.6 9.00233 2.6 16.9C2.6 24.7977 9.00233 31.2 16.9 31.2C24.7976 31.2 31.2 24.7977 31.2 16.9C31.2 9.00233 24.7976 2.6 16.9 2.6ZM0 16.9C0 7.56639 7.56639 0 16.9 0C26.2336 0 33.8 7.56639 33.8 16.9C33.8 26.2336 26.2336 33.8 16.9 33.8C7.56639 33.8 0 26.2336 0 16.9ZM16.9 6.5C17.6179 6.5 18.2 7.08203 18.2 7.8V19.5C18.2 20.218 17.6179 20.8 16.9 20.8C16.182 20.8 15.6 20.218 15.6 19.5V7.8C15.6 7.08203 16.182 6.5 16.9 6.5ZM16.9 26.65C17.9769 26.65 18.85 25.777 18.85 24.7C18.85 23.6231 17.9769 22.75 16.9 22.75C15.823 22.75 14.95 23.6231 14.95 24.7C14.95 25.777 15.823 26.65 16.9 26.65Z" fill="#2A2A2A"/>
</svg>
