<svg xmlns="http://www.w3.org/2000/svg" width="14" height="9" viewBox="0 0 14 9">
    <g fill="none" fill-rule="evenodd">
        <g fill="#6B6B6B">
            <g>
                <g>
                    <path d="M1.12 4.764c-.09-.15-.158-.277-.205-.371.057-.097.139-.229.247-.386.24-.348.606-.814 1.11-1.28C3.276 1.798 4.82.875 7.006.875s3.73.923 4.734 1.852c.504.466.87.932 1.11 1.28.108.157.19.29.247.386-.047.094-.115.221-.206.37-.208.345-.537.806-1.013 1.267-.945.916-2.485 1.845-4.872 1.845s-3.927-.93-4.872-1.845c-.476-.461-.805-.922-1.013-1.266zm12.755-.776c-.067-.117-.167-.28-.301-.476-.268-.39-.676-.908-1.237-1.427C11.212 1.045 9.465 0 7.006 0 4.546 0 2.8 1.046 1.676 2.085c-.562.52-.97 1.037-1.238 1.427-.134.195-.234.36-.301.476-.173.3-.18.437-.03.747.057.118.143.284.263.482.24.394.612.917 1.153 1.44C2.609 7.71 4.36 8.75 7.006 8.75c2.645 0 4.397-1.04 5.484-2.092.54-.524.913-1.047 1.152-1.441.12-.198.206-.364.264-.482.138-.286.12-.484-.03-.747zm-8.624.387c0-.966.786-1.75 1.755-1.75.97 0 1.755.784 1.755 1.75s-.786 1.75-1.755 1.75c-.97 0-1.755-.784-1.755-1.75zM7.006 1.75c-1.454 0-2.632 1.175-2.632 2.625S5.552 7 7.006 7C8.46 7 9.638 5.825 9.638 4.375S8.46 1.75 7.006 1.75z" transform="translate(-815 -1260) translate(529 1239) translate(286 21)"/>
                </g>
            </g>
        </g>
    </g>
</svg>
