<svg width="40" height="31" xmlns="http://www.w3.org/2000/svg">
    <g fill="#000" fill-rule="nonzero">
        <path d="M3.186 25.654h15.427a9.377 9.377 0 0 0 16.647 0h1.554A3.19 3.19 0 0 0 40 22.47V3.186A3.19 3.19 0 0 0 36.814 0H3.186A3.19 3.19 0 0 0 0 3.186v19.283a3.19 3.19 0 0 0 3.186 3.185zm4.07-4.774v-3.362h11.111a9.311 9.311 0 0 0-.8 3.362H7.257zm26.978 4.441H19.64a8.303 8.303 0 0 1 .426-8.672h13.743a8.303 8.303 0 0 1 .426 8.672zm-13.308-9.734a8.306 8.306 0 0 1 12.021 0H20.926zm6.01 14.063a8.31 8.31 0 0 1-6.604-3.267h13.209a8.31 8.31 0 0 1-6.604 3.267zm9.878-5.058h-1.082a9.378 9.378 0 0 0-16.336-8.834.526.526 0 0 0-.073.1c-.14.194-.272.393-.397.598h-12.2a.531.531 0 0 0-.531.53v4.425c0 .294.237.531.53.531h10.851c.058.906.249 1.8.565 2.65H3.186a2.126 2.126 0 0 1-2.124-2.123V9.86h37.876v12.608a2.126 2.126 0 0 1-2.124 2.123zM1.062 8.8V5.762h37.876v3.037H1.062zm2.124-7.737h33.628a2.126 2.126 0 0 1 2.124 2.124V4.7H1.062V3.186a2.126 2.126 0 0 1 2.124-2.124z"/>
        <path d="M22.285 19.349c.653 0 .762.4.784.746.006.168.108.369.562.369.347 0 .562-.093.562-.554 0-.932-.78-1.558-1.94-1.558-1.197 0-1.884.681-1.884 1.869v2.222c0 1.187.684 1.868 1.876 1.868 1.166 0 1.948-.652 1.948-1.622 0-.46-.218-.554-.57-.554-.438 0-.543.2-.554.368-.02.283-.057.811-.768.811-.536 0-.808-.293-.808-.871V20.22c0-.579.267-.872.792-.872zM28.227 18.353c-.273 0-.365.13-.393.239l-1.168 4.165-1.176-4.165c-.029-.11-.12-.24-.393-.24-.291 0-.698.18-.698.474.003.03.008.06.017.089l.044-.009-.043.01 1.538 5.014c.078.234.35.38.71.38.29 0 .628-.1.712-.382l1.53-5.011.005-.019a.282.282 0 0 0 .012-.072c0-.289-.413-.473-.697-.473zM32.806 18.353c-.272 0-.364.13-.393.239l-1.168 4.165-1.175-4.165c-.03-.11-.12-.24-.394-.24-.29 0-.697.18-.697.474.003.03.008.06.017.089l.043-.009-.043.01 1.538 5.014c.079.234.351.38.711.38.289 0 .627-.1.712-.382l1.53-5.01.005-.02a.282.282 0 0 0 .012-.071c0-.29-.413-.474-.698-.474z"/>
    </g>
</svg>
