<svg xmlns="http://www.w3.org/2000/svg" width="48" height="48" viewBox="0 0 48 48">
    <g fill="none" fill-rule="evenodd">
        <g fill-rule="nonzero">
            <g transform="translate(-567.000000, -924.000000) translate(567.000000, 924.000000)">
                <rect width="48" height="48" fill="#1D1D1B" rx="8"/>
                <path fill="#FFF" d="M23.98 9.094c-2.966.004-5.865.881-8.33 2.521s-4.384 3.97-5.516 6.693c-1.132 2.723-1.425 5.719-.842 8.607.583 2.89 2.016 5.541 4.117 7.622 2.1 2.08 4.775 3.495 7.686 4.066 2.91.57 5.926.27 8.666-.86 2.74-1.132 5.08-3.045 6.724-5.497 1.644-2.452 2.52-5.334 2.515-8.28 0-1.956-.389-3.894-1.144-5.701-.755-1.807-1.862-3.449-3.258-4.83-1.395-1.382-3.05-2.476-4.873-3.221-1.822-.745-3.774-1.126-5.744-1.12zm1.276 22.387c-.345.356-.817.562-1.314.574-.397.005-.787-.109-1.118-.328-.33-.218-.587-.53-.735-.896l-6.176-12.998h4.055l5.56 11.615c.096.22.16.452.19.69.025.243-.003.49-.083.721-.08.232-.209.444-.379.622zm6.099-10.81v.038l-2.009 4.062c-.023.035-.054.063-.09.083-.038.02-.079.03-.12.03-.043 0-.084-.01-.121-.03-.037-.02-.068-.048-.091-.083l-2.009-4.062c-.175-.373-.253-.784-.229-1.195.025-.412.152-.81.37-1.16.22-.35.522-.641.882-.847.36-.205.765-.318 1.18-.328.653.005 1.278.265 1.74.724.462.458.724 1.08.73 1.728.006.36-.074.716-.233 1.04z"/>
            </g>
        </g>
    </g>
</svg>
