<svg width="30" height="30" viewBox="0 0 30 30" fill="none" xmlns="http://www.w3.org/2000/svg">
<path fill-rule="evenodd" clip-rule="evenodd" d="M25.2803 12.5303C24.9874 12.8232 24.5126 12.8232 24.2197 12.5303L21 9.31066V21.75C21 22.1642 20.6642 22.5 20.25 22.5C19.8358 22.5 19.5 22.1642 19.5 21.75V9.31066L16.2803 12.5303C15.9874 12.8232 15.5126 12.8232 15.2197 12.5303C14.9268 12.2374 14.9268 11.7626 15.2197 11.4697L19.7197 6.96967C20.0126 6.67678 20.4874 6.67678 20.7803 6.96967L25.2803 11.4697C25.5732 11.7626 25.5732 12.2374 25.2803 12.5303ZM9.75 7.5C10.1642 7.5 10.5 7.83579 10.5 8.25V20.6893L13.7197 17.4697C14.0126 17.1768 14.4874 17.1768 14.7803 17.4697C15.0732 17.7626 15.0732 18.2374 14.7803 18.5303L10.2803 23.0303C9.98744 23.3232 9.51256 23.3232 9.21967 23.0303L4.71967 18.5303C4.42678 18.2374 4.42678 17.7626 4.71967 17.4697C5.01256 17.1768 5.48744 17.1768 5.78033 17.4697L9 20.6893V8.25C9 7.83579 9.33579 7.5 9.75 7.5Z" fill="#00C7B1"/>
</svg>
